<svg id="carrinho" xmlns="http://www.w3.org/2000/svg" width="27.766" height="26.453" viewBox="0 0 27.766 26.453">
  <path id="Caminho_17" data-name="Caminho 17" d="M78.669,67.919a2.4,2.4,0,0,0-2.423-1.654H57.433a1.863,1.863,0,0,0-.215,0c-.141.017-.2-.033-.215-.182-.058-.521-.141-1.042-.19-1.571a3.74,3.74,0,0,0-2.439-3.357,5.979,5.979,0,0,0-2.357-.24A1,1,0,0,0,51,61.907a1.026,1.026,0,0,0,1.042,1.009c.339.008.678-.008,1.025.008a1.66,1.66,0,0,1,1.646,1.439c.248,1.811.48,3.622.761,5.425.4,2.522.769,5.036,1.158,7.558a7.243,7.243,0,0,0,.463,2.133,3.747,3.747,0,0,0,3.614,2.2h6.326c2.125,0,4.259.008,6.384,0A3.7,3.7,0,0,0,77.3,78.421c.488-3.027.926-6.061,1.4-9.088A3.14,3.14,0,0,0,78.669,67.919Zm-1.985,1.034q-.546,3.548-1.083,7.1c-.107.711-.207,1.431-.331,2.142a1.677,1.677,0,0,1-1.728,1.464H60.551a1.64,1.64,0,0,1-1.712-1.431c-.314-1.976-.612-3.953-.918-5.937-.19-1.249-.372-2.489-.571-3.729-.041-.248.017-.289.248-.289q4.664.012,9.328.008h9.179C76.7,68.274,76.775,68.374,76.684,68.952Z" transform="translate(-51 -60.907)" fill="#f96c00"/>
  <path id="Caminho_18" data-name="Caminho 18" d="M148.728,349.839a1.365,1.365,0,1,1-1.373-1.34A1.345,1.345,0,0,1,148.728,349.839Z" transform="translate(-138.143 -324.717)" fill="#f96c00"/>
  <path id="Caminho_19" data-name="Caminho 19" d="M313.828,349.739a1.328,1.328,0,0,1-1.364,1.331,1.352,1.352,0,0,1-1.364-1.348,1.369,1.369,0,0,1,1.364-1.323A1.345,1.345,0,0,1,313.828,349.739Z" transform="translate(-289.591 -324.626)" fill="#f96c00"/>
</svg>
