<svg xmlns="http://www.w3.org/2000/svg" width="22.205" height="21.154" viewBox="0 0 22.205 21.154">
  <g id="carrinho" transform="translate(0 0)">
    <path id="Caminho_17" data-name="Caminho 17" d="M73.127,65.823a1.926,1.926,0,0,0-1.938-1.159H56.145a1.7,1.7,0,0,0-.172,0c-.112.012-.159-.023-.172-.128-.046-.365-.112-.73-.152-1.1A2.679,2.679,0,0,0,53.7,61.081a5.423,5.423,0,0,0-1.885-.168.754.754,0,0,0-.813.7.777.777,0,0,0,.833.707c.271.006.542-.006.82.006a1.282,1.282,0,0,1,1.316,1.009c.2,1.27.384,2.539.608,3.8.317,1.768.615,3.531.926,5.3a4.549,4.549,0,0,0,.37,1.5,3.065,3.065,0,0,0,2.89,1.542h5.059c1.7,0,3.406.006,5.105,0a2.875,2.875,0,0,0,3.108-2.284c.39-2.122.741-4.249,1.118-6.371A1.938,1.938,0,0,0,73.127,65.823Zm-1.587.725q-.436,2.487-.866,4.974c-.086.5-.165,1-.265,1.5a1.3,1.3,0,0,1-1.382,1.026H58.638a1.275,1.275,0,0,1-1.369-1c-.251-1.386-.489-2.771-.734-4.162-.152-.875-.3-1.745-.456-2.615-.033-.174.013-.2.2-.2q3.73.009,7.459.006h7.34C71.553,66.072,71.612,66.142,71.54,66.547Z" transform="translate(-51 -60.907)"/>
    <path id="Caminho_18" data-name="Caminho 18" d="M149.166,350.054a1.584,1.584,0,1,1-1.593-1.555A1.561,1.561,0,0,1,149.166,350.054Z" transform="translate(-140.026 -330.445)"/>
    <path id="Caminho_19" data-name="Caminho 19" d="M314.266,349.954a1.541,1.541,0,0,1-1.584,1.545,1.569,1.569,0,0,1-1.584-1.564,1.589,1.589,0,0,1,1.584-1.536A1.561,1.561,0,0,1,314.266,349.954Z" transform="translate(-296.158 -330.355)"/>
  </g>
</svg>
