<svg xmlns="http://www.w3.org/2000/svg" width="22.675" height="20.793" viewBox="0 0 22.675 20.793">
  <g id="historico" transform="translate(0 0)">
    <path id="Caminho_20" data-name="Caminho 20" d="M76.471,88.789a10.173,10.173,0,0,1-7.229,2.95,10.493,10.493,0,0,1-7.121-2.781.807.807,0,0,1,.628-1.431.966.966,0,0,1,.52.284A8.457,8.457,0,0,0,67.8,89.984a8.554,8.554,0,0,0,8.248-3.125,8.852,8.852,0,1,0-15.477-7.546,10.864,10.864,0,0,0-.209,1.552c-.007.142.034.189.175.182.344-.007.688-.007,1.039,0a.791.791,0,0,1,.709,1.181q-.931,1.66-1.9,3.3a.779.779,0,0,1-1.35,0c-.655-1.093-1.3-2.207-1.917-3.321a.788.788,0,0,1,.715-1.161c.229-.007.459-.014.682,0,.182.013.243-.034.25-.223a9.775,9.775,0,0,1,.9-3.706,10.221,10.221,0,0,1,7.911-6.034,10.373,10.373,0,0,1,11.859,8.1A9.959,9.959,0,0,1,76.471,88.789Z" transform="translate(-57.012 -70.946)"/>
    <path id="Caminho_21" data-name="Caminho 21" d="M218.755,127.384a.814.814,0,0,1-1.346.481c-.659-.515-1.312-1.051-1.971-1.573-.673-.543-1.346-1.085-2.033-1.621a.989.989,0,0,1-.405-.838c.007-1.195.007-2.383.007-3.578v-3.709a.819.819,0,0,1,1.614-.206,1.567,1.567,0,0,1,.027.357v6.641a.4.4,0,0,0,.172.364c1.188.941,2.369,1.9,3.557,2.836A.841.841,0,0,1,218.755,127.384Z" transform="translate(-202.533 -112.642)"/>
  </g>
</svg>
