<svg id="historico" xmlns="http://www.w3.org/2000/svg" viewBox="0 0 26.524 24.322">
  <path id="Caminho_20" data-name="Caminho 20" d="M79.774,91.818a11.9,11.9,0,0,1-8.456,3.45,12.274,12.274,0,0,1-8.33-3.253.944.944,0,0,1,.734-1.674,1.13,1.13,0,0,1,.608.332,9.892,9.892,0,0,0,5.3,2.542,10.007,10.007,0,0,0,9.648-3.656,10.354,10.354,0,1,0-18.1-8.827,12.708,12.708,0,0,0-.245,1.816c-.008.166.039.221.205.213.4-.008.805-.008,1.216,0a.925.925,0,0,1,.829,1.382Q62.088,86.086,60.951,88a.912.912,0,0,1-1.579,0c-.766-1.279-1.516-2.582-2.242-3.885a.921.921,0,0,1,.837-1.358c.268-.008.537-.016.8,0,.213.016.284-.039.292-.261a11.435,11.435,0,0,1,1.058-4.335,11.955,11.955,0,0,1,9.253-7.058A12.134,12.134,0,0,1,83.24,80.583,11.65,11.65,0,0,1,79.774,91.818Z" transform="translate(-57.012 -70.946)" fill="#f96c00"/>
  <path id="Caminho_21" data-name="Caminho 21" d="M219.616,129.13a.936.936,0,0,1-1.547.553c-.758-.592-1.508-1.208-2.266-1.808-.774-.624-1.548-1.247-2.337-1.863a1.137,1.137,0,0,1-.466-.963c.008-1.374.008-2.74.008-4.114v-4.264a.941.941,0,0,1,1.855-.237,1.8,1.8,0,0,1,.032.411v7.635a.461.461,0,0,0,.2.418c1.366,1.082,2.724,2.179,4.09,3.261A.967.967,0,0,1,219.616,129.13Z" transform="translate(-200.684 -112.182)" fill="#f96c00"/>
</svg>
