<svg xmlns="http://www.w3.org/2000/svg" width="20.885" height="20" viewBox="0 0 20.885 20">
  <g id="home" transform="translate(0 0)">
    <path id="Caminho_6" data-name="Caminho 6" d="M-875.415-98.164v.327a.937.937,0,0,1-.49.561.806.806,0,0,1-.9-.174c-.209-.2-.408-.408-.643-.638v.582c0,.8.005,1.587,0,2.383a.8.8,0,0,1-.658.8.811.811,0,0,1-.908-.49,1.054,1.054,0,0,1-.061-.419q0-2.159.005-4.318a.4.4,0,0,0-.122-.3q-2.986-2.993-5.971-6a.825.825,0,0,0-1.3,0q-3.032,3.009-6.048,6.012a.354.354,0,0,0-.122.3c0,2.8,0,5.594,0,8.391a1.63,1.63,0,0,0,1.245,1.669,1.724,1.724,0,0,0,.485.051c.617.005,1.24-.005,1.858.005.153,0,.169-.051.169-.184q-.008-3.154-.005-6.313a.843.843,0,0,1,.965-.96h4.206a.843.843,0,0,1,.96.965q0,3.147-.005,6.293c0,.153.031.2.194.2.643-.015,1.291-.005,1.94-.02a1.611,1.611,0,0,0,1.536-1.531,1.33,1.33,0,0,1,.025-.245.807.807,0,0,1,.9-.643.813.813,0,0,1,.714.827,3.276,3.276,0,0,1-2.43,3.124,3.87,3.87,0,0,1-.97.107h-2.572c-.663,0-.965-.306-.965-.975,0-2.093-.005-4.18.005-6.273,0-.168-.036-.214-.209-.209-.822.01-1.643.01-2.47,0-.153,0-.189.036-.189.189q.008,3.154.005,6.313a.835.835,0,0,1-.944.954c-1.016,0-2.026.015-3.042-.02a3.239,3.239,0,0,1-3-2.746,5.567,5.567,0,0,1-.041-.648V-98.1a6.069,6.069,0,0,0-.48.49.862.862,0,0,1-1.557-.23v-.367a1.859,1.859,0,0,1,.469-.623q4.1-4.08,8.2-8.166a2.461,2.461,0,0,1,3.639.005q4.1,4.119,8.2,8.232A1.7,1.7,0,0,1-875.415-98.164Z" transform="translate(896.3 107.8)"/>
  </g>
</svg>
