<svg id="home" xmlns="http://www.w3.org/2000/svg" viewBox="0 0 28.277 27.079">
  <path id="Caminho_6" data-name="Caminho 6" d="M-868.023-94.754v.442a1.269,1.269,0,0,1-.664.76,1.091,1.091,0,0,1-1.223-.235c-.283-.27-.553-.553-.871-.864v.788c0,1.078.007,2.149,0,3.227a1.088,1.088,0,0,1-.891,1.078,1.1,1.1,0,0,1-1.23-.663,1.43,1.43,0,0,1-.083-.567q0-2.923.007-5.846a.542.542,0,0,0-.166-.408q-4.043-4.053-8.085-8.12a1.117,1.117,0,0,0-1.762,0q-4.1,4.074-8.189,8.14a.479.479,0,0,0-.166.408c.007,3.787,0,7.574.007,11.36a2.207,2.207,0,0,0,1.686,2.26,2.333,2.333,0,0,0,.656.069c.836.007,1.679-.007,2.515.007.207,0,.228-.069.228-.249q-.01-4.271-.007-8.548a1.141,1.141,0,0,1,1.306-1.3h5.694a1.141,1.141,0,0,1,1.3,1.306q0,4.26-.007,8.52c0,.207.042.276.263.27.871-.021,1.748-.007,2.626-.028A2.181,2.181,0,0,0-873-85.017a1.81,1.81,0,0,1,.035-.332,1.093,1.093,0,0,1,1.223-.871,1.1,1.1,0,0,1,.967,1.119,4.436,4.436,0,0,1-3.289,4.229,5.241,5.241,0,0,1-1.313.145h-3.483c-.9,0-1.306-.415-1.306-1.32,0-2.833-.007-5.659.007-8.493,0-.228-.048-.29-.283-.283-1.113.014-2.225.014-3.345,0-.207,0-.256.048-.256.256q.01,4.271.007,8.548a1.131,1.131,0,0,1-1.278,1.292c-1.375,0-2.743.021-4.119-.028a4.385,4.385,0,0,1-4.056-3.718,7.509,7.509,0,0,1-.055-.878v-9.322a8.186,8.186,0,0,0-.65.663,1.167,1.167,0,0,1-2.108-.311v-.5a2.518,2.518,0,0,1,.636-.843q5.556-5.525,11.1-11.056a3.332,3.332,0,0,1,4.927.007q5.546,5.577,11.1,11.146A2.3,2.3,0,0,1-868.023-94.754Z" transform="translate(896.3 107.8)" fill="#f96c00"/>
</svg>
