<svg xmlns="http://www.w3.org/2000/svg" width="12.378" height="12.378" viewBox="0 0 12.378 12.378">
  <path id="Icon_awesome-pencil-alt" data-name="Icon awesome-pencil-alt" d="M12.039,3.439,10.924,4.554a.29.29,0,0,1-.411,0L7.83,1.87a.29.29,0,0,1,0-.411L8.944.344a1.163,1.163,0,0,1,1.642,0L12.039,1.8A1.159,1.159,0,0,1,12.039,3.439ZM6.872,2.416.523,8.765.011,11.7a.581.581,0,0,0,.672.672L3.62,11.86,9.969,5.511a.29.29,0,0,0,0-.411L7.286,2.416a.293.293,0,0,0-.413,0ZM3,8.221a.337.337,0,0,1,0-.479L6.725,4.019A.338.338,0,0,1,7.2,4.5L3.48,8.221a.337.337,0,0,1-.479,0Zm-.873,2.033H3.289v.878l-1.559.273-.752-.752.273-1.559h.878Z" transform="translate(-0.002 -0.005)" fill="#f96c00"/>
</svg>
