<svg xmlns="http://www.w3.org/2000/svg" width="25.794" height="25.797" viewBox="0 0 25.794 25.797">
  <g id="lista" transform="translate(623.406 86.5)">
    <path id="Caminho_7" data-name="Caminho 7" d="M-604.291-66.2a.534.534,0,0,0-.549-.549.546.546,0,0,0-.527.541,2.2,2.2,0,0,0,0,.223v3.338c0,.63-.223.86-.846.86h-15.264c-.608,0-.838-.237-.838-.846q0-8.066-.007-16.125c0-.23.074-.267.282-.267,1.261.007,2.522,0,3.783.007a2.689,2.689,0,0,0,.69-.067,2.15,2.15,0,0,0,1.654-2.188q.011-1.947,0-3.894c0-.193.03-.274.252-.274q4.717.022,9.464.015c.586,0,.823.237.823.831v3.367a1.142,1.142,0,0,0,.037.356.492.492,0,0,0,.467.371.5.5,0,0,0,.527-.326.806.806,0,0,0,.052-.3c0-1.194.007-2.388,0-3.583a2.044,2.044,0,0,0-.074-.519,1.747,1.747,0,0,0-1.78-1.268c-3.375,0-6.75.007-10.117-.007a3.332,3.332,0,0,0-2.485,1.038c-1.15,1.157-2.284,2.329-3.471,3.449a3.652,3.652,0,0,0-1.187,2.87c.03,2.715.007,5.429.007,8.144v8.478a1.758,1.758,0,0,0,1.8,1.817h15.428a1.714,1.714,0,0,0,1.862-1.654C-604.262-63.64-604.284-64.923-604.291-66.2Zm-17.438-14.775,3.85-3.85a1.959,1.959,0,0,1,.838-.512c.059.089.03.171.03.252v3.805a1.054,1.054,0,0,1-1.164,1.172h-3.835c-.074,0-.141-.007-.23-.007A1.91,1.91,0,0,1-621.729-80.974Z" transform="translate(0 0)" fill="#f96c00"/>
    <path id="Caminho_8" data-name="Caminho 8" d="M-445.928-42.652a1.987,1.987,0,0,0-.237-.141c-.163-.067-.2-.148-.089-.312.171-.26.326-.541.475-.816a1.335,1.335,0,0,0-.49-1.877c-.363-.223-.734-.423-1.105-.638a1.372,1.372,0,0,0-2.144.556q-4.016,6.942-8.04,13.87a5.143,5.143,0,0,0-.616,1.624c-.067.371-.148.742-.223,1.113-.1.556-.215,1.105-.3,1.587a1.022,1.022,0,0,0,.608,1,.982.982,0,0,0,1.113-.163c.534-.46,1.061-.927,1.595-1.38a6.617,6.617,0,0,0,1.528-1.743c1.558-2.722,3.137-5.429,4.7-8.137.712-1.224,1.417-2.448,2.129-3.672.037-.067.037-.193.178-.163a.687.687,0,0,1,.482,1.1c-.994,1.721-2,3.442-2.989,5.155a.541.541,0,0,0,.156.816.54.54,0,0,0,.764-.267c1.024-1.765,2.055-3.531,3.071-5.3A1.571,1.571,0,0,0-445.928-42.652Zm-5.808,6.876c-1.076,1.839-2.144,3.686-3.219,5.533a2.368,2.368,0,0,1-.415.556c-.719.638-1.439,1.276-2.158,1.906a27.628,27.628,0,0,1,.556-2.952,2.547,2.547,0,0,1,.289-.63c1.038-1.795,2.084-3.6,3.123-5.4.1-.178.178-.223.371-.1.445.282.9.534,1.365.794C-451.691-35.992-451.639-35.94-451.735-35.777Zm3.8-6.572c-1.031,1.765-2.047,3.531-3.071,5.288-.037.059-.044.148-.134.148-.044-.022-.081-.045-.126-.067-.482-.282-.957-.556-1.439-.831-.133-.074-.178-.134-.082-.289q1.535-2.626,3.056-5.274c.082-.141.141-.178.289-.082.475.289.957.564,1.439.831C-447.871-42.541-447.849-42.489-447.93-42.348Zm1.194-2.077c-.156.274-.319.541-.467.816-.067.119-.119.156-.252.074-.49-.3-.987-.586-1.483-.868-.119-.067-.141-.111-.067-.23.171-.274.334-.556.49-.838a.291.291,0,0,1,.46-.119c.4.23.8.46,1.2.7a.3.3,0,0,1,.185.26A.332.332,0,0,1-446.736-44.425Z" transform="translate(-152.489 -36.816)" fill="#f96c00"/>
    <path id="Caminho_9" data-name="Caminho 9" d="M-577.378,25.413a1.489,1.489,0,0,1-.185.007H-589.52a1.856,1.856,0,0,1-.408-.03c-.393-.074-.653-.326-.616-.579.044-.282.386-.5.86-.5.757-.007,1.506-.007,2.262-.007h9.835c.623,0,.987.193,1.016.519S-576.874,25.383-577.378,25.413Z" transform="translate(-30.421 -102.582)" fill="#f96c00"/>
    <path id="Caminho_10" data-name="Caminho 10" d="M-493.77-49.31a.815.815,0,0,1-.326.052h-5.993c-.349,0-.571-.134-.645-.378a.537.537,0,0,1,.556-.7c.63-.007,1.261,0,1.891,0h4.139a1.367,1.367,0,0,1,.3.022.477.477,0,0,1,.408.46A.52.52,0,0,1-493.77-49.31Z" transform="translate(-113.548 -33.474)" fill="#f96c00"/>
    <path id="Caminho_11" data-name="Caminho 11" d="M-578.417,64.327a2.186,2.186,0,0,1-.586.052H-589.58c-.541-.022-.92-.26-.92-.564s.371-.549.927-.556c.875-.007,1.758,0,2.633,0h8a1.4,1.4,0,0,1,.875.2C-577.7,63.748-577.861,64.179-578.417,64.327Z" transform="translate(-30.465 -138.648)" fill="#f96c00"/>
    <path id="Caminho_12" data-name="Caminho 12" d="M-493.345-12.612a.49.49,0,0,1-.452.475c-.23.022-.46.015-.69.015H-499.9a2.038,2.038,0,0,1-.3-.015.493.493,0,0,1-.445-.46.527.527,0,0,1,.349-.571.822.822,0,0,1,.326-.037h5.971a.987.987,0,0,1,.3.037A.511.511,0,0,1-493.345-12.612Z" transform="translate(-113.646 -67.857)" fill="#f96c00"/>
    <path id="Caminho_13" data-name="Caminho 13" d="M-580.7,102.623c0,.312-.371.556-.927.556-1.372.007-2.737,0-4.109,0-1.32,0-2.648.007-3.968,0-.757-.007-1.187-.423-.875-.808a1.026,1.026,0,0,1,.823-.312c2.707,0,5.414-.007,8.122,0C-581.076,102.066-580.7,102.318-580.7,102.623Z" transform="translate(-30.298 -174.57)" fill="#f96c00"/>
    <path id="Caminho_14" data-name="Caminho 14" d="M-583.2,141.771c-.007.326-.386.541-.979.541-.89.007-1.788,0-2.678,0h-2.626c-.623,0-1.016-.223-1.016-.556s.393-.556,1.009-.556h5.3C-583.565,141.2-583.187,141.43-583.2,141.771Z" transform="translate(-30.465 -210.811)" fill="#f96c00"/>
    <path id="Caminho_15" data-name="Caminho 15" d="M-584.627,180.708c.007.326-.4.571-1,.571q-1.936.011-3.872,0c-.608,0-1.009-.237-1-.571s.393-.549,1.024-.549c.66-.007,1.32,0,1.98,0,.63,0,1.261-.007,1.891,0C-585.02,180.166-584.642,180.389-584.627,180.708Z" transform="translate(-30.464 -246.877)" fill="#f96c00"/>
    <path id="Caminho_16" data-name="Caminho 16" d="M-585.219,219.679c.007.349-.356.564-.987.579h-1.661c-.542,0-1.076.007-1.617,0-.623-.007-1.016-.237-1.016-.564s.408-.564,1.024-.564c1.09-.007,2.188-.007,3.278,0C-585.6,219.131-585.226,219.346-585.219,219.679Z" transform="translate(-30.465 -282.956)" fill="#f96c00"/>
  </g>
</svg>
