<svg xmlns="http://www.w3.org/2000/svg" width="21.284" height="21.287" viewBox="0 0 21.284 21.287">
  <g id="lista" transform="translate(0 0)">
    <path id="Caminho_7" data-name="Caminho 7" d="M-607.818-69.749a.438.438,0,0,0-.448-.453.448.448,0,0,0-.429.447c-.006.061,0,.122,0,.184v2.754c0,.52-.182.71-.69.71h-12.448c-.5,0-.683-.2-.683-.7q0-6.656-.006-13.306c0-.19.06-.22.23-.22,1.028.006,2.056,0,3.085.006a2.167,2.167,0,0,0,.563-.055,1.77,1.77,0,0,0,1.349-1.805q.009-1.607,0-3.213c0-.159.024-.226.206-.226q3.847.018,7.718.012c.478,0,.671.2.671.685v2.779a.955.955,0,0,0,.03.294.4.4,0,0,0,.381.306.411.411,0,0,0,.43-.269.673.673,0,0,0,.042-.245c0-.985.006-1.971,0-2.956a1.7,1.7,0,0,0-.06-.428,1.426,1.426,0,0,0-1.452-1.047c-2.752,0-5.5.006-8.25-.006a2.7,2.7,0,0,0-2.026.857c-.938.955-1.863,1.922-2.831,2.846a3.032,3.032,0,0,0-.968,2.369c.024,2.24.006,4.48.006,6.72v7a1.442,1.442,0,0,0,1.47,1.5h12.581a1.4,1.4,0,0,0,1.518-1.365C-607.794-67.637-607.812-68.7-607.818-69.749Zm-14.22-12.192,3.139-3.176a1.6,1.6,0,0,1,.683-.422c.048.073.024.141.024.208v3.14a.865.865,0,0,1-.95.967h-3.127c-.06,0-.115-.006-.188-.006A1.581,1.581,0,0,1-622.038-81.94Z" transform="translate(623.406 86.5)"/>
    <path id="Caminho_8" data-name="Caminho 8" d="M-447.806-43.4a1.718,1.718,0,0,0-.2-.115c-.139-.055-.171-.121-.076-.255.146-.212.278-.443.4-.667a1.067,1.067,0,0,0-.418-1.534c-.31-.182-.626-.346-.943-.521a1.193,1.193,0,0,0-1.828.455q-3.426,5.675-6.858,11.337a4.1,4.1,0,0,0-.525,1.328c-.057.3-.126.606-.19.909-.089.455-.183.9-.259,1.3a.834.834,0,0,0,.519.818.865.865,0,0,0,.949-.133c.455-.376.9-.758,1.36-1.128a5.487,5.487,0,0,0,1.3-1.425c1.328-2.225,2.676-4.438,4.011-6.651.607-1,1.208-2,1.816-3,.032-.055.032-.158.152-.133a.558.558,0,0,1,.411.9c-.848,1.407-1.7,2.813-2.549,4.214a.432.432,0,0,0,.133.667.469.469,0,0,0,.652-.218c.873-1.443,1.752-2.886,2.619-4.335A1.256,1.256,0,0,0-447.806-43.4Zm-4.953,5.62c-.917,1.5-1.828,3.013-2.746,4.523a1.944,1.944,0,0,1-.354.455c-.614.521-1.227,1.043-1.841,1.558a21.724,21.724,0,0,1,.475-2.413,2.042,2.042,0,0,1,.247-.515c.886-1.467,1.778-2.94,2.663-4.414.089-.146.152-.182.316-.079.38.23.772.437,1.164.649C-452.722-37.953-452.677-37.911-452.76-37.778Zm3.245-5.372c-.879,1.443-1.746,2.886-2.619,4.323-.032.049-.038.121-.114.121-.038-.018-.07-.036-.108-.055-.411-.23-.816-.455-1.227-.679-.114-.061-.152-.109-.069-.236q1.309-2.146,2.606-4.311c.07-.115.12-.146.247-.067.4.236.816.461,1.227.679C-449.464-43.307-449.445-43.264-449.514-43.149Zm1.019-1.7c-.133.224-.272.443-.4.667-.057.1-.1.127-.215.061-.418-.243-.841-.479-1.265-.709-.1-.055-.12-.091-.057-.188.146-.224.285-.455.418-.685a.253.253,0,0,1,.392-.1c.342.188.683.376,1.025.57.082.048.158.1.158.212A.264.264,0,0,1-448.5-44.847Z" transform="translate(468.404 49.25)"/>
    <path id="Caminho_9" data-name="Caminho 9" d="M-579.316,25.249a1.27,1.27,0,0,1-.158.006h-10.2a1.585,1.585,0,0,1-.348-.025c-.335-.063-.557-.278-.525-.493.038-.24.329-.424.734-.43.645-.006,1.284-.006,1.93-.006h8.388c.532,0,.842.164.867.443S-578.885,25.224-579.316,25.249Z" transform="translate(592.626 -17.529)"/>
    <path id="Caminho_10" data-name="Caminho 10" d="M-494.8-49.462a.7.7,0,0,1-.278.044h-5.112c-.3,0-.487-.114-.55-.323a.458.458,0,0,1,.475-.6c.538-.006,1.075,0,1.613,0h3.53a1.167,1.167,0,0,1,.259.019.407.407,0,0,1,.348.392A.443.443,0,0,1-494.8-49.462Z" transform="translate(508.168 52.632)"/>
    <path id="Caminho_11" data-name="Caminho 11" d="M-580.195,64.169a1.864,1.864,0,0,1-.5.044h-9.021c-.462-.019-.785-.221-.785-.481s.317-.468.791-.474c.747-.006,1.5,0,2.246,0h6.82a1.2,1.2,0,0,1,.747.171C-579.581,63.676-579.72,64.043-580.195,64.169Z" transform="translate(592.582 -54.104)"/>
    <path id="Caminho_12" data-name="Caminho 12" d="M-494.42-12.7a.418.418,0,0,1-.386.4c-.2.019-.392.013-.589.013h-4.618a1.738,1.738,0,0,1-.259-.013.42.42,0,0,1-.38-.392.45.45,0,0,1,.3-.487.7.7,0,0,1,.278-.032h5.092a.842.842,0,0,1,.253.032A.436.436,0,0,1-494.42-12.7Z" transform="translate(508.068 17.685)"/>
    <path id="Caminho_13" data-name="Caminho 13" d="M-582.166,102.539c0,.266-.316.474-.791.474-1.17.006-2.334,0-3.5,0-1.126,0-2.259.006-3.385,0-.645-.006-1.012-.361-.746-.69a.875.875,0,0,1,.7-.266c2.309,0,4.618-.006,6.927,0C-582.489,102.065-582.166,102.28-582.166,102.539Z" transform="translate(592.75 -90.533)"/>
    <path id="Caminho_14" data-name="Caminho 14" d="M-584.275,141.687c-.006.278-.329.462-.835.462-.759.006-1.525,0-2.284,0h-2.239c-.531,0-.867-.19-.867-.475s.335-.474.86-.474h4.523C-584.585,141.2-584.262,141.4-584.275,141.687Z" transform="translate(592.582 -127.285)"/>
    <path id="Caminho_15" data-name="Caminho 15" d="M-585.491,180.626c.006.278-.341.487-.854.487q-1.651.009-3.3,0c-.519,0-.86-.2-.854-.487s.335-.468.873-.468c.563-.006,1.126,0,1.689,0,.538,0,1.076-.006,1.613,0C-585.826,180.165-585.5,180.354-585.491,180.626Z" transform="translate(592.583 -163.86)"/>
    <path id="Caminho_16" data-name="Caminho 16" d="M-586,219.6c.006.3-.3.481-.842.493h-1.417c-.462,0-.917.006-1.379,0-.531-.006-.867-.2-.867-.481s.348-.481.873-.481c.93-.006,1.866-.006,2.8,0C-586.318,219.13-586,219.313-586,219.6Z" transform="translate(592.582 -200.507)"/>
  </g>
</svg>
