<svg xmlns="http://www.w3.org/2000/svg" width="21.77" height="22.359" viewBox="0 0 21.77 22.359">
  <g id="settings" transform="translate(-2.715 -2.295)">
    <path id="Caminho_32" data-name="Caminho 32" d="M22.4,14.083V12.858l1.538-1.345a1.6,1.6,0,0,0,.3-2.042l-1.89-3.2a1.614,1.614,0,0,0-1.9-.72L18.512,6.2a9.089,9.089,0,0,0-1.049-.6l-.409-2.018a1.6,1.6,0,0,0-1.6-1.289H11.7a1.6,1.6,0,0,0-1.6,1.289L9.694,5.6a9.193,9.193,0,0,0-1.057.6L6.732,5.514a1.6,1.6,0,0,0-.512-.048,1.6,1.6,0,0,0-1.385.8l-1.89,3.2a1.6,1.6,0,0,0,.328,2.01l1.513,1.385v1.225L3.273,15.436a1.6,1.6,0,0,0-.328,2.042l1.89,3.2a1.614,1.614,0,0,0,1.9.72l1.946-.656a9.089,9.089,0,0,0,1.049.6l.409,2.018a1.6,1.6,0,0,0,1.6,1.289h3.78a1.6,1.6,0,0,0,1.6-1.289l.409-2.018a9.194,9.194,0,0,0,1.057-.6l1.938.656a1.614,1.614,0,0,0,1.9-.72l1.826-3.2a1.6,1.6,0,0,0-.328-2.01Zm-1.434,5.8-2.747-.929a7.1,7.1,0,0,1-2.17,1.257l-.568,2.875h-3.78l-.569-2.843a7.5,7.5,0,0,1-2.163-1.257l-2.754.9-1.89-3.2,2.178-1.922a7.128,7.128,0,0,1,0-2.506L4.33,10.271l1.89-3.2L8.967,8a7.1,7.1,0,0,1,2.17-1.257l.568-2.875h3.78l.569,2.843a7.5,7.5,0,0,1,2.163,1.257l2.754-.9,1.89,3.2-2.178,1.922a7.128,7.128,0,0,1,0,2.506l2.178,1.978Z" transform="translate(0 0)"/>
    <path id="Caminho_33" data-name="Caminho 33" d="M16.055,20.86a4.757,4.757,0,1,1,3.412-1.393A4.8,4.8,0,0,1,16.055,20.86Zm0-8.008a3.131,3.131,0,1,0,2.287.916A3.131,3.131,0,0,0,16.055,12.852Z" transform="translate(-2.46 -2.581)"/>
  </g>
</svg>
